<svg width="40" height="30" viewBox="0 0 40 30" fill="none" xmlns="http://www.w3.org/2000/svg">
<path d="M24.9296 0.404655L23.5746 0.033193C23.4002 -0.0249675 23.2284 -0.00667724 23.0614 0.0879101C22.8938 0.182574 22.7806 0.324685 22.7224 0.514012L14.5728 28.7209C14.5146 28.9103 14.5328 29.089 14.6275 29.2562C14.7221 29.4238 14.864 29.5367 15.0536 29.5949L16.4082 29.9665C16.583 30.0251 16.7542 30.0067 16.9217 29.912C17.0893 29.8169 17.2022 29.6752 17.2603 29.4862L25.4102 1.27882C25.4683 1.08949 25.4503 0.910881 25.3554 0.74321C25.2607 0.575616 25.119 0.462739 24.9296 0.404655Z" fill="white"/>
<path d="M12.7163 5.91095C12.7163 5.72162 12.6434 5.55395 12.4977 5.4084L11.4051 4.3159C11.2595 4.17027 11.0919 4.09726 10.9026 4.09726C10.7133 4.09726 10.5456 4.17034 10.4 4.3159L0.218561 14.4974C0.0727008 14.643 0 14.8106 0 14.9999C0 15.1892 0.0729303 15.3568 0.218561 15.5024L10.4 25.6838C10.5455 25.8297 10.7129 25.9022 10.9025 25.9022C11.0921 25.9022 11.2595 25.8295 11.4051 25.6838L12.4976 24.592C12.6433 24.4464 12.7162 24.2787 12.7162 24.0892C12.7162 23.9001 12.6433 23.7325 12.4976 23.5869L3.91107 14.9999L12.4977 6.4135C12.6436 6.26795 12.7163 6.10028 12.7163 5.91095Z" fill="white"/>
<path d="M39.7646 14.4971L29.5828 4.31565C29.4373 4.1701 29.2696 4.09702 29.0806 4.09702C28.891 4.09702 28.7239 4.1701 28.5778 4.31565L27.4857 5.40808C27.3401 5.55371 27.2675 5.72107 27.2675 5.91063C27.2675 6.10019 27.3401 6.26763 27.4857 6.41318L36.0725 14.9998L27.4857 23.5869C27.3401 23.7325 27.2675 23.9001 27.2675 24.0892C27.2675 24.2788 27.3401 24.4464 27.4857 24.5919L28.5778 25.6838C28.7239 25.8297 28.891 25.9022 29.0806 25.9022C29.2697 25.9022 29.4373 25.8295 29.5828 25.6838L39.7646 15.5024C39.9102 15.3569 39.983 15.189 39.983 14.9997C39.983 14.8103 39.9102 14.6427 39.7646 14.4971Z" fill="white"/>
</svg>
