<svg width="31" height="31" viewBox="0 0 31 31" fill="none" xmlns="http://www.w3.org/2000/svg">
<path d="M30.6314 0.281715C30.3958 0.0735376 30.0838 -0.0264315 29.7711 0.00600489L9.84254 2.22031C9.28159 2.28239 8.85713 2.75649 8.8572 3.32081V23.0516C7.85376 22.4512 6.70514 22.1368 5.53577 22.1426C2.48336 22.1427 0 24.1289 0 26.5713C0 29.0137 2.48336 31 5.5357 31C8.58805 31 11.0714 29.0148 11.0714 26.5713V9.85319L28.7857 7.88021V20.834C27.782 20.2347 26.6334 19.9215 25.4643 19.9283C22.4119 19.9283 19.9286 21.9146 19.9286 24.357C19.9286 26.7994 22.412 28.7857 25.4643 28.7857C28.5166 28.7857 31 26.8005 31 24.357V1.10657C31 0.79168 30.866 0.491708 30.6314 0.281715Z" fill="white"/>
</svg>
