<svg width="17" height="10" viewBox="0 0 17 10" fill="none" xmlns="http://www.w3.org/2000/svg">
<path d="M7.57897 9.10154L7.57893 9.1015L1.12927 2.52833C0.623608 2.013 0.623546 1.17934 1.12927 0.664111L7.57897 9.10154ZM7.57897 9.10154C7.8323 9.35959 8.16599 9.4898 8.49996 9.4898C8.83371 9.4898 9.16742 9.35992 9.42092 9.10178L9.42099 9.1017M7.57897 9.10154L9.42099 9.1017M8.49996 6.29855L2.97166 0.664116L2.97162 0.664068C2.46335 0.14632 1.63745 0.146246 1.1293 0.664075L8.49996 6.29855ZM8.49996 6.29855L14.0283 0.664316L14.0283 0.664278C14.5366 0.146538 15.3624 0.146446 15.8705 0.664235L8.49996 6.29855ZM9.42099 9.1017L15.8705 2.52858C15.8705 2.52856 15.8705 2.52855 15.8706 2.52853M9.42099 9.1017L15.8706 2.52853M15.8706 2.52853C16.3764 2.0132 16.3765 1.17955 15.8706 0.664322L15.8706 2.52853Z" fill="white" stroke="white" stroke-width="0.5"/>
</svg>
