<svg width="27" height="28" viewBox="0 0 27 28" fill="none" xmlns="http://www.w3.org/2000/svg">
<path d="M8.77003 24.0164L8.77002 24.0164C5.09399 22.349 2.24997 18.472 2.24997 14.2224C2.24997 12.2101 2.45787 10.7004 2.98911 9.35586C3.51997 8.01227 4.38159 6.81373 5.72059 5.43649L5.72061 5.43648C6.70538 4.42342 7.59893 3.84962 8.93719 3.23932C9.43693 3.01154 10.2176 2.75604 11.0539 2.56722C11.8917 2.37808 12.7639 2.26076 13.45 2.29752C16.8817 2.48138 19.2404 3.68695 21.1132 5.60652C24.1753 8.74531 25.2134 13.2026 23.8712 17.3132L23.8712 17.3132C23.7765 17.6033 23.4697 18.2193 23.1709 18.8185C23.0247 19.1116 22.8828 19.3963 22.7775 19.6218C22.725 19.7343 22.6798 19.8357 22.6473 19.9181C22.6311 19.9592 22.6167 19.999 22.6059 20.0351C22.597 20.065 22.5834 20.115 22.5834 20.1675C22.5834 20.9184 22.8011 21.8284 23.074 22.671C23.2741 23.2889 23.5078 23.8822 23.7184 24.3678C23.5005 24.2995 23.2657 24.2195 23.0167 24.1342L22.9574 24.1138C22.5226 23.9648 22.0512 23.8031 21.576 23.6712C20.5969 23.3994 19.5293 23.2314 18.6774 23.6186C16.9848 24.388 15.4186 24.8976 13.8239 25.0115C12.233 25.1252 10.5991 24.8462 8.77003 24.0164ZM16.5958 26.0357L16.6068 26.0323L16.6176 26.028L19.5478 24.8342C19.9062 24.8412 20.3982 24.9247 20.9653 25.0624C21.5538 25.2052 22.2076 25.4025 22.8493 25.6189C24.1369 26.0533 25.3539 26.5576 25.8813 26.842L26.3665 27.1038L26.2437 26.5663C26.1673 26.232 25.9672 25.7314 25.7265 25.1735C25.5932 24.8647 25.4422 24.5264 25.2873 24.1796C25.1617 23.8982 25.0335 23.6112 24.9103 23.3297C24.6318 22.6936 24.3725 22.0721 24.1966 21.5494C24.1086 21.288 24.0434 21.057 24.0067 20.8648C23.9728 20.6875 23.9672 20.5629 23.9783 20.4842C23.9847 20.472 23.9931 20.4561 24.0037 20.4362C24.013 20.4188 24.0238 20.3986 24.036 20.3758C24.0594 20.332 24.0879 20.2788 24.1197 20.2188C24.2172 20.0353 24.3506 19.7811 24.495 19.4913C24.7818 18.9154 25.1191 18.1853 25.3021 17.5868L25.063 17.5137L25.3021 17.5868C26.6615 13.1376 25.556 8.96348 23.2764 5.90543C21.0016 2.85368 17.5415 0.893539 14.1667 0.893539C11.7026 0.893539 10.1473 0.944891 7.77082 2.16241L7.7708 2.16242C7.13317 2.48913 6.5257 2.85112 5.96584 3.26889L5.96581 3.26892C5.62135 3.52604 5.4263 3.6787 5.11705 3.97641C5.11695 3.97651 5.11684 3.97661 5.11674 3.97671L4.34399 4.71697L4.34376 4.71673L4.33493 4.72611C2.50908 6.66495 0.75 9.60033 0.75 13.3732C0.75 22.7162 9.36511 28.2273 16.5958 26.0357Z" fill="white" stroke="white" stroke-width="0.5"/>
</svg>
