<svg width="37" height="32" viewBox="0 0 37 32" fill="none" xmlns="http://www.w3.org/2000/svg">
<path fill-rule="evenodd" clip-rule="evenodd" d="M19.2849 28.6433C19.2849 27.5013 18.8402 26.0946 18.6307 25.0443L16.3697 13.8738C16.3697 13.0267 19.834 11.2447 20.5009 10.8353C22.1218 9.84024 23.5311 8.99181 25.1051 8.04526L34.085 2.46099L32.4207 5.72334C31.7159 6.90482 31.2418 7.81138 30.5685 9.02189C29.793 10.4162 20.0318 28.0973 19.2849 28.6433ZM3.13935 1.11835H33.6367C33.1999 1.71325 21.9314 8.53297 20.3115 9.52752L15.6969 12.3075L7.79175 5.4268C6.78264 4.39861 3.68708 1.93473 3.13935 1.11835ZM18.8365 32.0001C19.3644 31.6139 20.8136 28.8725 21.2261 28.1189C22.0082 26.6906 22.6812 25.5176 23.4765 24.0989C25.0081 21.3659 26.4903 18.7429 28.0204 16.1017C28.4108 15.4274 28.766 14.7336 29.1399 14.086L37.0003 -0.000473022H0C0.701345 1.0451 5.39904 4.85351 6.56313 5.98156C7.25917 6.65635 7.49012 6.8321 8.23093 7.45036C8.86259 7.97738 9.20739 8.48588 9.83329 8.9841L13.2854 12.0287C15.2972 14.0807 14.7948 12.5898 15.4914 16.093L18.8365 32.0001Z" fill="white"/>
</svg>
