<svg width="32" height="32" viewBox="0 0 32 32" fill="none" xmlns="http://www.w3.org/2000/svg">
<path fill-rule="evenodd" clip-rule="evenodd" d="M30.5325 16.6398C30.2452 24.4751 23.5535 30.8744 15.3204 30.5306C7.52836 30.2052 1.12189 23.5636 1.46788 15.3475C1.79715 7.52617 8.41195 1.12131 16.6804 1.46887C24.5044 1.79777 30.8341 8.41429 30.5325 16.6398ZM0.0126613 16.5998C0.349876 25.1989 7.54204 32.3355 16.5878 31.9878C25.2104 31.6564 32.3333 24.4516 31.9879 15.399C31.6594 6.7875 24.4422 -0.334868 15.3995 0.0121688C6.79059 0.342575 -0.341713 7.56095 0.0126613 16.5998ZM14.6003 17.4331C14.4827 17.316 14.2008 16.7857 14.0893 16.591C13.9257 16.3051 13.7594 16.035 13.6011 15.7593C13.2789 15.1979 10.7279 10.8936 10.6873 10.7334C11.2379 10.9999 11.8236 11.3811 12.3831 11.6969C12.9386 12.0104 13.5088 12.3416 14.0623 12.6581C14.4859 12.9004 17.2795 14.4624 17.3953 14.5999C17.2122 14.8345 16.9124 15.1069 16.6929 15.3328C16.4531 15.5797 16.2412 15.7967 16.0029 16.0427C15.7903 16.2622 15.5009 16.527 15.2973 16.7367C15.1338 16.905 14.7589 17.3303 14.6003 17.4331ZM23.6818 23.6802C23.5679 23.352 21.3773 19.0551 21.1315 18.5483C20.7138 17.6871 20.2828 16.8593 19.8535 15.987C19.6917 15.6583 18.6833 13.5622 18.5613 13.4389L9.61205 8.94788C9.24029 8.76518 8.67826 8.43719 8.31852 8.31776C8.43637 8.65149 11.8163 15.3325 12.1528 16.0079C12.3222 16.3478 13.3265 18.4385 13.4445 18.5556C13.5514 18.6616 21.3827 22.5441 22.3923 23.0475C22.778 23.2396 23.3007 23.5441 23.6818 23.6802Z" fill="white"/>
</svg>
