<svg width="23" height="31" viewBox="0 0 23 31" fill="none" xmlns="http://www.w3.org/2000/svg">
<path d="M7.33327 29.7083L7.33327 4.40961L9.72397 6.72558C10.2446 7.22998 11.0887 7.22998 11.6093 6.72558C11.87 6.47306 12 6.14304 12 5.81237C12 5.4817 11.87 5.15168 11.6093 4.89916L6.9426 0.378299C6.42192 -0.126099 5.57791 -0.126099 5.05724 0.378299L0.390504 4.89916C-0.13017 5.40355 -0.13017 6.22119 0.390504 6.72558C0.911178 7.22998 1.75519 7.22998 2.27586 6.72558L4.66656 4.40961L4.66656 29.7083C4.66656 30.4213 5.26391 31 5.99992 31C6.73593 31 7.33327 30.4213 7.33327 29.7083Z" fill="#CFCFCF"/>
<path d="M15.6666 1.29167L15.6666 26.5904L13.2759 24.2744C12.7552 23.77 11.9112 23.77 11.3905 24.2744C10.8698 24.7782 10.8698 25.5971 11.3905 26.1008L16.0572 30.6217C16.5779 31.1261 17.4219 31.1261 17.9426 30.6217L22.6093 26.1008C22.87 25.849 23 25.5183 23 25.1876C23 24.857 22.87 24.5263 22.6093 24.2744C22.0887 23.77 21.2446 23.77 20.724 24.2744L18.3333 26.5904L18.3333 1.29167C18.3333 0.57867 17.7359 -2.94437e-07 16.9999 -2.62265e-07C16.2639 -2.30093e-07 15.6666 0.57867 15.6666 1.29167Z" fill="#CFCFCF"/>
</svg>
