<svg width="30" height="8" viewBox="0 0 30 8" fill="none" xmlns="http://www.w3.org/2000/svg">
<path d="M1.09835 1.4543C2.56281 -0.038189 4.93718 -0.0381892 6.40164 1.4543C7.8661 2.94678 7.8661 5.36659 6.40164 6.85908C4.93718 8.35156 2.56281 8.35156 1.09835 6.85908C-0.366115 5.36665 -0.366116 2.94684 1.09835 1.4543Z" fill="white"/>
<path d="M12.3485 1.4543C13.8129 -0.038189 16.1873 -0.0381892 17.6517 1.4543C19.1162 2.94678 19.1162 5.36659 17.6517 6.85908C16.1873 8.35156 13.8129 8.35156 12.3485 6.85908C10.884 5.36665 10.884 2.94684 12.3485 1.4543Z" fill="white"/>
<path d="M23.5983 1.4543C25.0628 -0.038189 27.4372 -0.0381892 28.9016 1.4543C30.3661 2.94678 30.3661 5.36659 28.9016 6.85908C27.4372 8.35156 25.0628 8.35156 23.5983 6.85908C22.1339 5.36665 22.1339 2.94684 23.5983 1.4543Z" fill="white"/>
</svg>
