<svg width="32" height="8" viewBox="0 0 32 8" fill="none" xmlns="http://www.w3.org/2000/svg">
<path d="M16 8C18.2091 8 20 6.20914 20 4C20 1.79086 18.2091 0 16 0C13.7909 0 12 1.79086 12 4C12 6.20914 13.7909 8 16 8Z" fill="white"/>
<path d="M28 8C30.2091 8 32 6.20914 32 4C32 1.79086 30.2091 0 28 0C25.7909 0 24 1.79086 24 4C24 6.20914 25.7909 8 28 8Z" fill="white"/>
<path d="M4 8C6.20914 8 8 6.20914 8 4C8 1.79086 6.20914 0 4 0C1.79086 0 0 1.79086 0 4C0 6.20914 1.79086 8 4 8Z" fill="white"/>
</svg>
