<svg width="38" height="32" viewBox="0 0 38 32" fill="none" xmlns="http://www.w3.org/2000/svg">
<path d="M26.6671 1.68533C28.163 1.68533 29.6508 2.11839 30.9596 2.93266C35.2043 5.57758 36.6538 11.4849 34.1878 16.093C32.4282 19.3869 25.0946 25.5484 18.8252 30.2262C18.7132 30.3014 18.6093 30.3205 18.5438 30.3205C18.4591 30.3205 18.3553 30.3014 18.2419 30.2262C11.9725 25.5484 4.64975 19.3869 2.88879 16.093C0.413264 11.4849 1.87232 5.57758 6.10888 2.93266C7.42582 2.11839 8.9136 1.68533 10.4014 1.68533C13.0558 1.68533 15.5122 2.96539 17.1885 5.20182L18.5438 7.02295L19.8895 5.20182C21.5466 2.96539 24.0317 1.68533 26.6671 1.68533ZM26.6671 0.000793457C23.5699 0.000793457 20.5479 1.49265 18.5438 4.19911C16.5191 1.49265 13.4971 0.000793457 10.4014 0.000793457C8.64034 0.000793457 6.86161 0.485784 5.21403 1.50634C0.224741 4.61304 -1.47892 11.4986 1.40237 16.8922C3.75491 21.2791 13.6679 28.9037 17.235 31.5773C17.6202 31.8643 18.0724 32.0009 18.5438 32.0009C18.9864 32.0009 19.4468 31.8643 19.8334 31.5773C23.4101 28.9037 33.3312 21.2791 35.6661 16.8922C38.5459 11.4986 36.8424 4.61304 31.8531 1.50634C30.2164 0.485784 28.4267 0.000793457 26.6671 0.000793457Z" fill="white"/>
</svg>
