<svg width="39" height="39" viewBox="0 0 39 39" fill="none" xmlns="http://www.w3.org/2000/svg">
<path d="M38.7868 11.4347C38.6957 9.36815 38.3615 7.94742 37.8828 6.71634C37.3889 5.40958 36.6291 4.23964 35.6337 3.26706C34.6611 2.27934 33.4835 1.51184 32.1918 1.0257C30.9536 0.546983 29.5403 0.212798 27.4738 0.121684C25.3918 0.0228528 24.7309 0 19.4504 0C14.1699 0 13.509 0.0228528 11.4347 0.113967C9.36815 0.205081 7.94742 0.539563 6.71664 1.01799C5.40958 1.51184 4.23963 2.27163 3.26706 3.26706C2.27934 4.23964 1.51214 5.4173 1.0257 6.70892C0.546983 7.94742 0.212798 9.36044 0.121684 11.427C0.0228528 13.509 0 14.1699 0 19.4504C0 24.7309 0.0228528 25.3918 0.113967 27.4661C0.205081 29.5326 0.539563 30.9533 1.01828 32.1844C1.51214 33.4912 2.27934 34.6611 3.26706 35.6337C4.23963 36.6214 5.41729 37.3889 6.70892 37.8751C7.94742 38.3538 9.36044 38.688 11.4273 38.7791C13.5012 38.8705 14.1625 38.8931 19.443 38.8931C24.7234 38.8931 25.3844 38.8705 27.4586 38.7791C29.5252 38.688 30.9459 38.3538 32.1767 37.8751C34.7905 36.8645 36.8571 34.798 37.8676 32.1844C38.3461 30.9459 38.6805 29.5326 38.7717 27.4661C38.8628 25.3918 38.8856 24.7309 38.8856 19.4504C38.8856 14.1699 38.8779 13.509 38.7868 11.4347ZM35.2844 27.3141C35.2007 29.2136 34.8816 30.2393 34.6157 30.9231C33.9622 32.6174 32.6174 33.9622 30.9231 34.6157C30.2393 34.8816 29.2061 35.2007 27.3141 35.2841C25.2627 35.3755 24.6475 35.3981 19.4581 35.3981C14.2687 35.3981 13.6458 35.3755 11.6018 35.2841C9.70234 35.2007 8.67663 34.8816 7.99283 34.6157C7.14965 34.3041 6.38216 33.8102 5.7592 33.1644C5.11338 32.5337 4.61952 31.774 4.3079 30.9308C4.04197 30.247 3.72292 29.2136 3.63953 27.3218C3.54812 25.2704 3.52556 24.6549 3.52556 19.4655C3.52556 14.2762 3.54812 13.6532 3.63953 11.6095C3.72292 9.71006 4.04197 8.68435 4.3079 8.00055C4.61952 7.15707 5.11338 6.38987 5.76691 5.76662C6.39729 5.1208 7.15707 4.62695 8.00055 4.31561C8.68435 4.04969 9.71777 3.73064 11.6095 3.64695C13.6609 3.55583 14.2765 3.53298 19.4655 3.53298C24.6626 3.53298 25.2778 3.55583 27.3218 3.64695C29.2213 3.73064 30.247 4.04969 30.9308 4.31561C31.774 4.62695 32.5415 5.1208 33.1644 5.76662C33.8102 6.39729 34.3041 7.15707 34.6157 8.00055C34.8816 8.68435 35.2007 9.71748 35.2844 11.6095C35.3755 13.6609 35.3984 14.2762 35.3984 19.4655C35.3984 24.6549 35.3755 25.2627 35.2844 27.3141Z" fill="white"/>
<path d="M19.4503 9.45927C13.9345 9.45927 9.45923 13.9343 9.45923 19.4504C9.45923 24.9665 13.9345 29.4415 19.4503 29.4415C24.9665 29.4415 29.4415 24.9665 29.4415 19.4504C29.4415 13.9343 24.9665 9.45927 19.4503 9.45927ZM19.4503 25.9314C15.872 25.9314 12.9694 23.0291 12.9694 19.4504C12.9694 15.8717 15.872 12.9694 19.4503 12.9694C23.029 12.9694 25.9313 15.8717 25.9313 19.4504C25.9313 23.0291 23.029 25.9314 19.4503 25.9314Z" fill="white"/>
<path d="M32.1694 9.06425C32.1694 10.3523 31.125 11.3967 29.8366 11.3967C28.5486 11.3967 27.5042 10.3523 27.5042 9.06425C27.5042 7.77589 28.5486 6.73178 29.8366 6.73178C31.125 6.73178 32.1694 7.77589 32.1694 9.06425Z" fill="white"/>
</svg>
