<svg width="138" height="39" viewBox="0 0 138 39" fill="none" xmlns="http://www.w3.org/2000/svg">
<path fill-rule="evenodd" clip-rule="evenodd" d="M76.3994 37.3004C75.0881 37.3004 74.2573 37.1287 74.2573 35.3096C74.2573 33.7528 75.3997 32.1191 76.1458 31.2179C76.8851 30.325 78.2268 28.6479 79.1124 28.0573C79.1124 29.6314 79.2887 37.3004 76.3994 37.3004ZM59.1202 24.0759C55.5191 24.0759 56.0527 11.5623 59.6915 11.5623C62.424 11.5623 62.2619 15.3267 62.2619 17.5345C62.2619 19.923 61.2363 24.0759 59.1202 24.0759ZM75.5426 24.0759C72.0437 24.0759 72.7766 14.6255 74.6818 12.4116C75.8106 11.1001 78.6841 10.4595 78.6841 16.5392C78.6841 19.1643 77.8399 24.0759 75.5426 24.0759ZM104.246 24.0759C101.607 24.0759 101.818 19.6538 101.818 17.5345C101.818 10.8142 106.17 9.95267 107.045 13.8936L107.349 16.9262C107.166 19.1044 107.019 21.5386 105.68 23.2293C105.406 23.5753 104.846 24.0759 104.246 24.0759ZM44.5543 4.45229V5.4476H41.841C40.9664 5.4476 40.841 5.03008 40.3995 5.85877C40.1654 6.29826 39.9847 6.87859 39.9847 7.58064C39.9847 8.63605 43.5073 8.29158 44.2688 8.29158V16.397C44.2688 18.2182 42.6405 20.9349 41.5555 21.6585C41.5555 20.3575 41.5734 19.6803 41.123 18.8184C40.4043 17.4428 39.0051 16.4835 37.8021 15.5842C37.1385 15.0885 36.4885 14.5518 35.8433 14.1217C36.5041 13.1392 37.6998 11.6627 37.6998 10.1403C37.6998 7.55258 31.9878 8.38363 31.9878 12.9842C31.9878 13.9798 32.4595 14.4024 32.8445 14.9749C32.6934 15.6214 32.1091 16.5899 31.7625 17.1681C30.8804 18.6394 28.9909 22.8078 27.4181 22.9381C26.5463 21.1288 27.1313 14.5554 27.1325 12.842C27.1335 11.334 27.3113 10.7623 26.3654 10.0509C22.2819 6.97902 19.9341 11.6926 18.6646 14.9327C18.3589 15.7124 18.0833 17.0826 17.5647 17.6768V9.85588C17.0037 9.48165 14.1375 8.06215 14.1375 9.85588V23.9336C14.1375 26.0643 15.7539 27.1423 17.7076 26.2088C18.0243 24.8548 18.0926 23.4546 18.5133 22.0342C19.3739 19.1284 21.0566 13.5646 23.4197 11.9889C23.4197 15.6469 21.8204 26.4932 25.8473 26.4932C27.8605 26.4932 29.9241 23.7377 30.8389 22.2208C31.9955 20.3028 33.2177 18.3822 34.2726 16.397C35.0004 16.8823 36.9339 18.7932 37.4484 19.6337C38.403 21.1927 38.0776 23.7913 36.4146 23.7913C34.155 23.7913 33.5684 21.0113 32.0944 23.1867C31.7666 23.6708 31.5595 24.0502 31.5595 24.7868C31.5595 26.2682 38.0836 27.8529 41.5226 24.4697C42.1848 23.8184 42.5351 23.3961 43.0711 22.5989C43.509 21.9475 44.0812 21.0377 44.2688 20.2364C44.2877 20.2662 44.3106 20.2799 44.3169 20.3307L44.5577 21.2285C44.6251 21.658 44.6658 21.9813 44.7876 22.4215C45.6971 25.7105 48.6731 28.243 51.5868 24.964C52.0341 24.4605 53.0582 22.9963 53.1225 22.2272H53.408C53.633 24.9185 57.1959 28.1737 60.9996 25.3785C61.9622 24.6712 62.4299 23.6208 62.9759 23.2227C64.0258 27.7105 69.3441 27.0904 70.1159 23.7913H70.4016C70.9135 25.9794 74.9416 28.3847 78.8269 23.9336C78.8269 24.8547 78.9977 25.2414 78.5176 25.7586C77.1125 27.272 75.2426 28.4153 73.9503 30.0271C72.3478 32.026 71.544 32.5637 71.544 35.4519C71.544 38.9879 77.1315 40.2377 79.7922 37.5506C81.692 35.6323 82.0491 33.4378 82.2636 30.6264C82.4065 28.7536 82.2542 26.9107 82.2542 24.9291C82.2542 24.5475 83.8494 22.7451 84.168 22.2842C84.8106 21.3548 85.4396 20.5035 85.9674 19.5256C87.0237 17.5685 88.2969 15.5173 88.8231 13.2687C89.9108 13.2687 90.6497 13.1264 91.5363 13.1264C91.5363 15.2559 88.9564 22.9625 93.5026 25.815C94.9997 26.7543 96.7612 26.5278 98.0217 25.2725C98.5667 24.7298 98.6156 24.5856 98.9621 23.9336C99.3215 24.1959 99.3696 24.4487 99.6523 24.8106C101.204 26.7968 103.928 26.8908 105.923 25.4611C106.603 24.9734 107.589 24.0694 107.816 23.2227H108.101C108.367 26.3993 112.807 27.9364 114.763 24.4524L115.099 23.9336C115.099 24.6632 115.094 25.5949 115.491 25.96C115.975 26.4045 118.544 26.7599 119.097 26.2088C119.636 25.0903 119.244 24.0898 119.404 22.6746C119.53 21.5515 119.608 20.2264 119.845 19.1325C120.132 17.8075 121.263 14.0183 122.096 13.4108C122.297 13.8281 122.447 19.0612 122.604 20.1573C122.826 21.7112 122.851 25.0712 125.095 25.0712C125.9 25.0712 126.313 25.0707 126.951 24.6445C126.951 22.1203 127.267 20.5488 127.726 18.4479C127.948 17.4291 128.212 16.5918 128.542 15.7062C128.772 15.0928 129.133 13.6567 129.665 13.2687C129.65 13.9117 129.522 13.8337 129.522 14.5484C129.522 17.2617 129.51 20.8128 130.216 23.1003C130.531 24.1242 130.869 24.6554 131.552 25.3243C133.26 26.9963 135.819 26.8313 136.952 24.6494C137.145 24.2782 139.023 19.9521 137.233 19.9521C136.163 19.9521 136.459 24.0759 134.805 24.0759C131.585 24.0759 133.634 12.4051 132.999 10.8011C132.679 9.99172 130.774 9.00268 129.665 9.00268C128.604 9.00268 128.329 9.82367 128.011 10.6265C127.662 11.5061 127.398 12.2907 127.112 13.1446C126.69 14.4056 125.809 17.0086 125.809 18.53L125.441 15.6259C125.287 14.6093 125.379 13.4649 125.384 12.4121C125.389 11.2828 125.313 10.5411 124.712 9.95292C124.087 9.34259 122.02 8.42506 121.229 9.41901C120.268 10.6273 119.848 12.5163 119.365 13.9615C119.195 14.4699 119.003 15.3495 118.669 15.8281C118.669 14.2638 118.658 12.6956 118.673 11.1318C118.682 10.1471 118.74 9.67253 117.964 9.41951C117.155 9.15568 116.059 8.95534 115.242 9.14478C114.832 10.896 115.089 13.5907 115.101 15.5456C115.106 16.5028 114.961 16.8364 114.95 17.6711C114.933 19.0702 115.004 20.4192 114.547 21.6783C113.308 25.0958 111.173 25.4097 110.955 20.95L110.81 16.2502C110.834 15.4561 110.962 14.9662 110.958 13.98C110.955 13.1749 110.947 12.3596 110.955 11.5553C110.965 10.5346 111.231 10.3103 110.564 9.82452C109.817 9.2791 108.468 9.21164 107.53 9.42932C107.413 9.93061 107.387 9.89637 107.387 10.5668L106.127 9.40447C104.006 7.83678 101.405 9.01443 100.021 10.9098C99.6989 11.3502 99.5441 11.6733 99.2933 12.1765C96.9232 16.9298 98.4952 20.3817 98.2223 22.0497C97.5891 25.9212 92.954 24.9936 94.8074 15.6726C95.1322 14.0391 96.6084 10.2825 93.6783 10.2825C92.3023 10.2825 90.8025 10.9622 89.3943 10.9935C90.7755 8.12733 86.218 7.00928 85.3381 10.2286C84.7402 12.4158 86.2527 12.962 86.2527 13.2687C86.2527 14.957 83.6398 20.03 82.4487 21.5677C82.2561 21.8164 82.3677 21.6706 82.2542 21.8005L82.2494 12.4108C82.2706 11.7126 82.4943 11.3153 82.3938 10.5766C82.313 9.98285 82.0185 9.82283 81.4881 9.62324L79.6837 9.28705C78.7976 9.28705 78.6841 9.67312 78.6841 10.5668C77.6977 9.43668 76.8799 8.71813 74.9712 8.71813C71.8528 8.71813 70.2623 12.4131 69.6545 15.0843C69.0135 17.9006 69.8428 21.1249 69.1397 22.677C67.8767 25.4645 65.8319 24.6101 65.8319 19.5255L65.9747 10.1403C65.155 9.59357 62.3083 8.34779 62.2619 10.4245C60.6581 9.35518 60.9416 8.71813 58.4062 8.71813C54.7272 8.71813 52.9459 14.7417 52.9782 17.8176C52.9917 19.1112 52.8587 19.3999 52.5355 20.3629C51.3092 24.0165 48.2672 25.6449 48.2672 19.6676L48.4067 10.8478C48.4026 9.86213 48.5528 9.46491 48.5528 8.43385L53.408 8.29158C53.8189 7.51851 54.052 6.93717 53.8364 6.01651C52.2146 5.8821 50.2139 5.7274 48.5528 5.58987L48.8246 1.46494C48.7904 0.755955 48.1975 0.634902 47.5952 0.428808C44.7861 -0.532345 44.7714 0.194226 44.6959 1.89116C44.6596 2.70413 44.5543 3.4159 44.5543 4.45229ZM0 10.2825C0 14.9199 4.71251 16.6456 4.71251 15.4016C4.71251 14.3156 2.51407 13.1802 3.62844 8.20746C3.98737 6.60546 5.56287 2.84285 6.99737 2.46143C6.99737 6.978 7.29169 22.3327 6.67232 26.4541C6.44159 27.9894 5.39623 29.6216 6.42614 29.6216C7.65248 29.6216 9.23945 27.8698 9.8078 26.7322C10.5171 25.3134 10.8531 23.4436 10.8531 21.374V1.46613C10.8531 0.526698 8.90005 0.0440087 7.56861 0.0440087C6.72097 0.0440087 5.28443 1.18885 4.73085 1.62649C2.41644 3.45623 0 7.17919 0 10.2825H0Z" fill="white"/>
</svg>
