<svg width="29" height="16" viewBox="0 0 29 16" fill="none" xmlns="http://www.w3.org/2000/svg">
<path fill-rule="evenodd" clip-rule="evenodd" d="M28.2557 8.43809L21.6663 15.1532C21.1782 15.6506 20.3867 15.6506 19.8983 15.1532L16.4966 11.6864C16.0085 11.189 16.0085 10.3821 16.4966 9.88471C16.9849 9.38714 17.7764 9.38714 18.2644 9.8845L20.7825 12.4508L26.4877 6.63634C26.9759 6.13877 27.7675 6.13905 28.2556 6.63634C28.7436 7.13376 28.7436 7.9403 28.2557 8.43809ZM0 13.9414V15.5263H15.6939C16.2436 15.5263 16.118 15.1567 16.118 14.2295C16.118 11.9107 14.8357 10.1948 12.5833 10.1948H3.67595C1.53227 10.1948 0 11.8006 0 13.9414ZM4.10012 3.99892C4.10012 5.58533 4.16841 6.32205 5.4033 7.57C7.99507 10.1892 12.3006 7.92247 12.3006 4.86356C12.3006 3.54018 12.1346 2.36859 11.0669 1.36568C8.33118 -1.20385 4.10012 1.02831 4.10012 3.99892Z" fill="white"/>
</svg>
